<?xml version="1.0" standalone="no"?>
<!DOCTYPE svg PUBLIC "-//W3C//DTD SVG 20010904//EN"
 "http://www.w3.org/TR/2001/REC-SVG-20010904/DTD/svg10.dtd">
<svg version="1.0" xmlns="http://www.w3.org/2000/svg"
 width="3264.000000pt" height="3264.000000pt" viewBox="0 0 3264.000000 3264.000000"
 preserveAspectRatio="xMidYMid meet">

<g transform="translate(0.000000,3264.000000) scale(0.100000,-0.100000)"
fill="#000000" stroke="none">
<path d="M23435 27741 c-6 -6 -3548 -13 -9225 -18 l-9215 -8 -3 -166 -2 -165
25 -24 c20 -18 25 -33 25 -69 l0 -46 2853 -2853 2854 -2852 174 2 174 3 5 955
5 955 6163 3 6162 2 0 -5146 0 -5146 -237 229 c-131 125 -968 957 -1860 1848
l-1623 1620 0 56 c0 31 -11 211 -25 400 -14 189 -39 526 -55 749 -17 223 -44
592 -61 820 -17 228 -36 487 -42 575 l-12 160 -163 3 -163 3 -59 -58 c-31 -32
-239 -245 -461 -473 -423 -436 -667 -686 -987 -1010 l-192 -196 0 -194 c1
-113 13 -372 31 -615 16 -231 40 -577 54 -770 13 -192 29 -397 35 -455 13
-131 49 -659 57 -840 l6 -134 2873 -2871 c1579 -1578 2879 -2884 2887 -2900 8
-17 66 -79 129 -139 62 -61 421 -414 798 -785 377 -372 775 -763 885 -871 215
-209 515 -504 985 -965 678 -666 822 -808 967 -943 l152 -142 159 0 160 0 6
702 c3 387 10 2739 16 5228 6 2489 15 5945 20 7680 5 1735 12 4438 16 6006 l7
2851 -48 6 c-77 11 -4240 8 -4250 -2z"/>
<path d="M4455 27111 l-70 -6 2 -3020 c1 -1661 7 -4500 13 -6310 6 -1809 13
-4612 17 -6228 4 -2099 9 -2942 17 -2952 10 -13 261 -16 1986 -22 l1975 -6 3
-2026 c3 -1276 7 -2030 13 -2036 7 -7 3126 -10 9319 -10 6193 0 9312 3 9318
10 5 6 12 83 15 173 l5 163 -176 182 c-98 100 -241 247 -319 327 -78 80 -158
163 -179 185 -63 67 -542 560 -974 1000 -453 464 -698 714 -1080 1105 -217
223 -480 493 -585 600 -105 107 -245 250 -311 318 l-119 123 -5784 -1 c-3182
0 -5783 2 -5780 4 2 3 927 930 2054 2061 1128 1131 2053 2062 2056 2068 4 7 9
102 13 212 6 211 14 432 47 1370 36 1049 38 1117 39 1403 l0 282 -111 0 -110
0 26 34 c25 33 25 35 23 197 l-3 164 -1558 0 -1559 0 -51 -55 c-29 -30 -140
-150 -247 -265 -107 -116 -251 -268 -321 -340 -153 -159 -172 -179 -614 -655
-120 -129 -250 -269 -289 -310 -144 -153 -214 -228 -342 -365 -283 -304 -584
-626 -703 -755 -69 -74 -162 -173 -206 -220 -45 -47 -171 -182 -280 -300 -109
-118 -235 -253 -280 -300 -44 -47 -224 -240 -400 -429 l-320 -343 -3 5554 -2
5554 -683 680 c-1196 1190 -3120 3098 -3173 3147 l-51 47 -94 -2 c-52 -1 -125
-4 -164 -7z m189 -303 c89 -79 250 -232 352 -333 55 -55 343 -338 639 -630
596 -587 1009 -996 2083 -2062 l723 -718 -7 -792 -7 -793 -34 0 c-18 0 -33 4
-33 9 0 5 -18 11 -40 15 -22 3 -40 11 -40 16 0 6 -11 10 -25 10 -14 0 -25 4
-25 9 0 5 -18 11 -40 15 -22 3 -40 11 -40 16 0 6 -11 10 -25 10 -14 0 -25 4
-25 9 0 5 -12 12 -27 16 -15 3 -30 11 -34 16 -3 5 -35 12 -72 16 -37 3 -67 10
-67 14 0 5 -7 9 -15 9 -8 0 -15 4 -15 9 0 5 -13 12 -30 16 -16 4 -30 11 -30
16 0 5 -9 9 -20 9 -11 0 -20 4 -20 10 0 5 -18 13 -40 16 -22 4 -40 10 -40 14
0 4 -11 11 -25 14 -14 4 -25 11 -25 16 0 6 -7 10 -15 10 -8 0 -15 4 -15 9 0 5
-13 12 -30 16 -16 4 -30 11 -30 16 0 5 -9 9 -20 9 -11 0 -20 5 -20 10 0 6 -13
10 -29 10 -16 0 -36 7 -44 15 -8 7 -26 17 -41 21 -14 3 -26 10 -26 15 0 5 -9
9 -19 9 -10 0 -21 7 -25 15 -3 8 -12 15 -21 15 -8 0 -15 5 -15 10 0 6 -9 10
-19 10 -10 0 -21 7 -25 15 -3 8 -14 15 -25 15 -10 0 -21 7 -25 15 -3 8 -12 15
-21 15 -8 0 -15 5 -15 10 0 6 -11 10 -25 10 -14 0 -25 5 -25 10 0 6 -8 10 -19
10 -10 0 -26 11 -37 24 -10 14 -28 27 -41 31 -13 3 -23 10 -23 15 0 6 -7 10
-15 10 -8 0 -15 4 -15 10 0 5 -11 12 -24 16 -14 3 -27 12 -30 20 -3 8 -15 14
-26 14 -11 0 -20 4 -20 9 0 18 -31 41 -55 41 -15 0 -26 7 -30 20 -3 11 -17 23
-31 26 -13 3 -24 10 -24 14 0 5 -10 12 -22 16 -13 4 -44 29 -69 55 -26 27 -54
49 -63 49 -9 0 -16 4 -16 9 0 5 -11 12 -25 15 -14 4 -25 11 -25 16 0 6 -4 10
-10 10 -13 0 -70 57 -70 70 0 5 -6 10 -12 10 -7 0 -29 18 -48 40 -19 22 -43
40 -52 40 -10 0 -18 5 -18 10 0 6 -4 10 -10 10 -15 0 -50 33 -50 48 0 14 -70
82 -85 82 -4 0 -24 18 -46 40 -22 22 -46 40 -54 40 -7 0 -17 10 -20 22 -4 11
-36 49 -71 83 -35 34 -64 69 -64 79 0 9 -8 16 -18 16 -16 0 -52 32 -52 46 0 3
-13 19 -30 36 -16 16 -30 34 -30 39 0 13 -76 89 -89 89 -6 0 -11 5 -11 11 0 7
-11 22 -25 35 -14 13 -25 30 -25 39 0 8 -4 15 -9 15 -5 0 -12 11 -15 24 -3 14
-15 28 -26 31 -11 3 -20 13 -20 21 0 8 -6 14 -14 14 -8 0 -18 9 -21 20 -3 11
-11 20 -16 20 -5 0 -9 5 -9 11 0 7 -11 22 -25 35 -14 13 -25 26 -25 29 0 4 -7
13 -15 21 -8 9 -15 24 -15 35 0 11 -15 35 -34 52 -18 18 -36 42 -40 55 -4 12
-12 22 -17 22 -5 0 -9 7 -9 15 0 8 -4 15 -10 15 -5 0 -12 11 -16 25 -3 13 -15
27 -25 30 -10 4 -19 15 -19 26 0 10 -7 19 -15 19 -10 0 -15 10 -15 29 0 16 -7
36 -15 45 -8 8 -15 19 -15 25 0 6 -4 11 -9 11 -5 0 -12 11 -15 25 -4 14 -11
25 -16 25 -6 0 -10 5 -10 10 0 10 -8 21 -37 54 -7 8 -15 25 -19 40 -3 14 -10
26 -15 26 -5 0 -9 7 -9 15 0 8 -4 15 -10 15 -5 0 -10 9 -10 20 0 11 -7 23 -15
26 -8 4 -15 17 -15 30 0 13 -4 24 -10 24 -5 0 -12 16 -16 35 -3 19 -10 35 -14
35 -5 0 -11 14 -15 30 -4 17 -11 30 -16 30 -5 0 -9 7 -9 15 0 8 -4 15 -10 15
-5 0 -12 11 -16 25 -3 14 -10 25 -15 25 -5 0 -9 7 -9 15 0 8 -4 15 -9 15 -5 0
-12 20 -15 45 -4 25 -11 45 -17 45 -5 0 -9 7 -9 15 0 8 -4 15 -9 15 -5 0 -11
23 -15 50 -4 28 -10 50 -15 50 -5 0 -11 18 -15 40 -3 22 -11 40 -16 40 -6 0
-10 11 -10 24 0 13 -7 26 -15 30 -8 3 -15 17 -15 31 0 14 -4 25 -10 25 -5 0
-10 7 -10 15 0 8 -4 15 -9 15 -5 0 -12 21 -16 48 -4 26 -12 50 -18 54 -8 5
-13 60 -15 165 -2 87 -7 160 -12 163 -9 6 -27 1410 -18 1410 2 0 26 -19 52
-42z m11152 -11075 c-4 -76 -11 -275 -16 -443 -6 -168 -15 -411 -20 -540 -6
-129 -17 -413 -25 -630 -17 -452 -29 -679 -46 -901 l-13 -157 -31 34 c-18 19
-36 34 -40 34 -4 0 -18 11 -31 25 -13 14 -29 25 -37 25 -8 0 -22 11 -33 24
-10 14 -28 27 -40 30 -13 4 -26 15 -29 26 -3 11 -10 20 -15 20 -5 0 -22 14
-38 30 -17 17 -33 30 -37 30 -13 0 -243 237 -249 258 -4 11 -16 24 -26 27 -10
3 -22 15 -25 25 -3 10 -15 22 -26 25 -10 4 -19 13 -19 21 0 7 -13 27 -30 42
-16 16 -30 34 -30 41 0 6 -22 33 -50 60 -27 27 -50 58 -50 69 0 11 -7 22 -15
26 -8 3 -15 14 -15 25 0 10 -7 21 -15 25 -8 3 -15 10 -15 16 0 6 -11 22 -25
36 -14 14 -25 30 -25 37 0 7 -9 19 -20 27 -11 8 -20 20 -20 28 0 7 -6 15 -14
18 -8 3 -17 21 -20 40 -4 19 -11 34 -16 34 -6 0 -10 7 -10 15 0 8 -4 15 -10
15 -5 0 -12 16 -16 35 -3 19 -10 35 -15 35 -5 0 -9 7 -9 15 0 8 -4 15 -9 15
-5 0 -12 14 -16 30 -4 17 -11 30 -16 30 -5 0 -9 9 -9 20 0 11 -7 23 -15 26 -8
4 -15 13 -15 20 0 14 7 24 38 59 6 7 12 18 12 23 0 15 110 139 309 347 47 50
185 194 306 320 121 127 265 277 322 335 56 58 146 151 200 207 54 56 102 103
107 103 4 0 5 -62 2 -137z"/>
<path d="M4534 7980 c-17 -5 -39 -19 -50 -31 -18 -20 -19 -50 -22 -909 -1
-561 1 -897 7 -913 22 -57 78 -66 414 -67 125 0 227 -3 227 -7 0 -5 -58 -47
-128 -95 -284 -194 -467 -325 -499 -355 -23 -22 -23 -25 -23 -260 0 -260 2
-272 59 -295 17 -7 211 -14 546 -19 423 -6 525 -5 547 6 25 12 534 363 887
611 74 52 138 94 143 94 4 0 8 -149 8 -331 0 -207 4 -337 10 -350 28 -51 108
-58 781 -61 447 -3 443 -3 467 59 14 39 36 2827 22 2854 -6 10 -24 26 -41 34
-35 19 -157 21 -1609 30 -509 3 -1103 7 -1320 10 -239 3 -407 1 -426 -5z
m1531 -563 c22 -3 56 -8 75 -12 19 -4 44 -8 55 -10 11 -1 27 -5 36 -9 9 -4 20
-6 25 -5 5 1 12 0 17 -1 4 -1 10 -3 15 -5 4 -1 14 -5 22 -8 8 -4 26 -8 40 -10
14 -2 33 -7 42 -11 9 -4 22 -9 30 -10 7 -2 20 -6 28 -9 8 -4 45 -17 83 -30 37
-13 64 -27 60 -30 -3 -4 1 -8 10 -8 36 -3 42 -5 40 -16 -1 -6 6 -9 19 -5 14 3
19 1 14 -6 -4 -7 -1 -12 8 -12 9 0 16 -4 16 -9 0 -5 7 -12 16 -15 14 -5 15 -4
4 9 -20 25 -5 17 20 -10 l24 -26 -582 7 -582 7 0 -161 c0 -160 0 -162 23 -166
12 -3 280 -7 594 -10 l573 -4 2 159 3 159 28 -25 c15 -14 27 -23 27 -19 0 4
14 -5 30 -21 17 -16 30 -25 30 -21 0 4 6 1 14 -6 8 -7 13 -17 13 -23 -1 -5 5
-10 13 -10 8 0 14 -6 13 -13 -2 -7 3 -11 10 -9 6 1 11 -5 9 -13 -2 -8 -1 -12
3 -8 10 9 45 -24 38 -35 -3 -6 -1 -7 4 -4 6 4 17 -1 24 -10 12 -14 12 -16 -1
-8 -8 4 2 -9 22 -30 21 -21 35 -41 33 -46 -3 -4 4 -14 16 -23 12 -8 19 -21 16
-29 -3 -7 3 -19 13 -25 10 -6 17 -19 16 -29 -2 -10 6 -26 17 -35 11 -10 16
-18 10 -18 -5 0 -10 -7 -10 -15 0 -8 4 -12 9 -9 4 3 8 0 8 -6 0 -6 6 -17 13
-24 6 -7 12 -30 12 -52 -1 -21 4 -44 11 -51 6 -7 10 -26 9 -43 -1 -17 2 -33 7
-36 5 -3 4 -11 -2 -19 -8 -10 -8 -15 0 -20 8 -5 8 -10 0 -20 -8 -9 -8 -15 0
-20 6 -3 7 -12 3 -18 -4 -7 -9 -21 -10 -31 -2 -11 -8 -26 -15 -33 -6 -8 -11
-27 -10 -44 0 -20 -3 -27 -11 -22 -8 5 -8 2 0 -9 11 -12 9 -18 -7 -33 -14 -13
-17 -22 -10 -30 7 -8 4 -17 -10 -30 -11 -10 -20 -24 -20 -32 0 -7 -9 -21 -20
-30 -16 -14 -17 -20 -7 -32 9 -12 9 -13 0 -7 -8 4 -13 1 -13 -9 0 -9 -4 -13
-10 -10 -5 3 -10 0 -10 -8 0 -8 -7 -20 -15 -27 -8 -7 -12 -17 -8 -23 3 -5 1
-7 -4 -4 -6 4 -17 -1 -24 -10 -12 -14 -12 -16 1 -8 8 4 4 -5 -10 -21 -33 -38
-42 -44 -55 -37 -5 4 -7 2 -2 -2 9 -10 -21 -45 -39 -45 -7 0 -16 -5 -20 -12
-5 -7 -2 -8 7 -3 8 4 5 -2 -7 -14 -11 -12 -30 -23 -42 -24 -11 0 -20 -6 -19
-12 1 -5 -4 -9 -11 -7 -6 1 -11 -1 -10 -5 2 -5 -1 -9 -6 -10 -5 -1 -12 -5 -15
-10 -3 -4 -14 -14 -23 -21 -16 -13 -17 -6 -13 112 3 82 1 127 -6 132 -6 3 -23
-2 -37 -13 -130 -95 -696 -474 -714 -477 -13 -3 -23 -5 -23 -6 0 -7 -57 -5
-61 2 -3 4 -11 5 -17 1 -19 -12 -111 -11 -126 1 -12 9 -13 8 -7 -2 7 -11 4
-12 -12 -3 -25 13 -35 14 -28 3 3 -5 -1 -9 -9 -9 -8 0 -11 5 -8 11 4 6 -1 5
-10 -3 -11 -9 -17 -10 -17 -2 0 6 -5 11 -11 11 -5 0 -7 -5 -3 -12 5 -7 3 -8
-7 -2 -17 10 -31 13 -89 17 -25 2 -52 7 -59 12 -10 6 -12 4 -6 -6 7 -12 6 -12
-7 -1 -9 7 -34 15 -57 17 -23 2 -47 8 -54 12 -7 4 -20 8 -29 9 -10 1 -20 3
-23 4 -3 1 -9 4 -15 5 -5 1 -12 4 -15 5 -3 1 -9 4 -15 5 -5 1 -12 4 -15 5 -3
1 -14 4 -25 5 -11 1 -22 4 -25 5 -3 1 -11 3 -17 4 -7 1 -12 7 -11 13 2 7 -6
10 -16 8 -10 -2 -53 14 -95 36 -42 21 -80 38 -84 37 -12 -3 -66 29 -86 51 -10
11 -23 18 -27 15 -5 -3 -9 0 -9 6 0 7 -7 9 -16 6 -8 -3 -13 -2 -9 3 3 5 1 11
-5 13 -6 2 113 91 264 198 151 107 272 198 269 203 -2 4 -102 7 -221 7 -119 0
-302 3 -406 7 l-188 6 4 371 c5 375 8 411 43 426 5 3 9 8 8 12 -2 5 2 7 9 5 6
-1 17 8 23 21 7 13 16 24 21 25 5 1 8 6 6 10 -1 5 2 6 7 3 9 -6 26 11 26 27 0
4 4 7 8 6 5 -1 21 11 36 25 15 15 30 23 34 19 4 -3 7 1 7 10 0 10 6 16 13 15
6 -2 11 3 9 10 -1 6 1 11 5 10 14 -3 59 20 72 36 7 9 19 16 26 16 7 0 18 7 25
15 7 8 16 13 20 10 4 -3 13 2 20 9 6 8 20 13 30 11 11 -2 19 -1 17 3 -1 4 3 8
8 10 6 2 18 11 28 19 9 9 17 13 17 8 0 -4 8 -1 17 6 15 12 16 12 8 -1 -5 -10
-1 -8 13 4 12 10 28 16 37 13 8 -4 14 -1 12 6 -1 7 10 12 30 12 17 0 31 4 30
10 -1 5 7 9 17 7 10 -2 23 2 27 10 6 8 9 9 9 1 0 -7 14 -5 40 8 46 22 54 23
44 7 -6 -10 -4 -10 7 0 7 6 22 12 34 12 12 0 27 6 34 13 11 10 12 9 6 -3 -6
-12 -5 -13 6 -2 7 6 37 12 65 12 29 0 55 4 59 9 5 9 367 7 450 -2z m583 -342
c9 -3 12 -24 10 -72 l-3 -68 -460 4 c-253 1 -463 5 -467 8 -12 7 -10 131 2
135 15 5 903 -2 918 -7z"/>
</g>
</svg>
